<svg preserveAspectRatio="none" overflow="visible" style="display: block;" width="20" height="20" viewBox="0 0 20 20" fill="none" xmlns="http://www.w3.org/2000/svg">
<g id="building-magnifying-glass-solid-full 1">
<path id="Vector" d="M2 4C2 2.89688 2.89688 2 4 2H12C13.1031 2 14 2.89688 14 4V7.65C13.6 7.55313 13.1813 7.5 12.75 7.5C9.85 7.5 7.5 9.85 7.5 12.75C7.5 12.8344 7.50312 12.9188 7.50625 13H7.5C6.94687 13 6.5 13.4469 6.5 14V16.5H9.075C9.91875 17.325 11.0406 17.8719 12.2844 17.9813C12.1906 17.9938 12.0969 18 12 18H4C2.89688 18 2 17.1031 2 16V4ZM5.5 5C5.225 5 5 5.225 5 5.5V6.5C5 6.775 5.225 7 5.5 7H6.5C6.775 7 7 6.775 7 6.5V5.5C7 5.225 6.775 5 6.5 5H5.5ZM9 5.5V6.5C9 6.775 9.225 7 9.5 7H10.5C10.775 7 11 6.775 11 6.5V5.5C11 5.225 10.775 5 10.5 5H9.5C9.225 5 9 5.225 9 5.5ZM5.5 9C5.225 9 5 9.225 5 9.5V10.5C5 10.775 5.225 11 5.5 11H6.5C6.775 11 7 10.775 7 10.5V9.5C7 9.225 6.775 9 6.5 9H5.5ZM12.75 15.0031C13.9937 15.0031 15 13.9969 15 12.7531C15 11.5094 13.9937 10.5031 12.75 10.5031C11.5063 10.5031 10.5 11.5094 10.5 12.7531C10.5 13.9969 11.5063 15.0031 12.75 15.0031ZM12.75 16.5031C10.6781 16.5031 9 14.825 9 12.7531C9 10.6813 10.6781 9.00313 12.75 9.00313C14.8219 9.00313 16.5 10.6813 16.5 12.7531C16.5 13.5188 16.2719 14.2281 15.8781 14.8219L17.7812 16.7219C18.075 17.0156 18.075 17.4906 17.7812 17.7812C17.4875 18.0719 17.0125 18.075 16.7219 17.7812L14.8219 15.8781C14.2281 16.2719 13.5188 16.5 12.7531 16.5L12.75 16.5031Z" fill="#EA5E01"/>
</g>
</svg>
