<svg preserveAspectRatio="none" overflow="visible" style="display: block;" width="24" height="24" viewBox="0 0 24 24" fill="none" xmlns="http://www.w3.org/2000/svg">
<g id="telegram-brands-solid-full 1">
<path id="Vector" d="M12 2.7C6.8625 2.7 2.7 6.8625 2.7 12C2.7 17.1375 6.8625 21.3 12 21.3C17.1375 21.3 21.3 17.1375 21.3 12C21.3 6.8625 17.1375 2.7 12 2.7ZM16.3125 9.02625C16.1738 10.4963 15.5663 14.0663 15.2588 15.7125C15.1275 16.41 14.8725 16.6425 14.625 16.665C14.085 16.7138 13.6763 16.3088 13.1513 15.9638C12.3338 15.4275 11.8688 15.0938 11.0775 14.5688C10.1588 13.965 10.755 13.6313 11.2763 13.0875C11.415 12.945 13.7925 10.7812 13.8375 10.5862C13.845 10.56 13.8488 10.47 13.7925 10.4213C13.7363 10.3725 13.6575 10.3913 13.6013 10.4025C13.5188 10.4213 12.21 11.2838 9.67875 12.9938C9.3075 13.2488 8.97 13.3725 8.67 13.365C8.33625 13.3575 7.69875 13.1775 7.2225 13.0238C6.64125 12.8362 6.17625 12.735 6.2175 12.4125C6.24 12.2438 6.46875 12.075 6.9075 11.8987C9.61875 10.7175 11.4262 9.9375 12.33 9.5625C14.9138 8.49 15.45 8.3025 15.7988 8.295C15.8775 8.295 16.0463 8.31375 16.1588 8.40375C16.2338 8.4675 16.2788 8.5575 16.29 8.655C16.3088 8.775 16.3125 8.89875 16.305 9.0225L16.3125 9.02625Z" fill="#032964"/>
</g>
</svg>
